<svg width="48" height="48" viewBox="0 0 48 48" fill="none" xmlns="http://www.w3.org/2000/svg">
<rect width="48" height="48" rx="8" fill="#073E74"/>
<path d="M33.5711 39H15.2854C15.2606 38.9847 15.2344 38.9719 15.2072 38.9616C13.7639 38.6251 12.9992 37.6647 13 36.1784C13.0068 28.6684 13.0149 21.1586 13.0243 13.6491C13.0128 13.3759 13.0359 13.1024 13.0931 12.8351C13.6089 10.8894 15.2064 10.5826 16.8289 10.8072C16.8289 11.1273 16.8202 11.449 16.8289 11.7707C16.8298 12.0046 16.8534 12.2379 16.8993 12.4673C17.1576 13.5544 18.0819 14.2674 19.2317 14.2713C22.6598 14.2745 26.0879 14.2745 29.516 14.2713C31.0814 14.2713 32.0472 13.3008 32.048 11.7276C32.048 11.4091 32.048 11.0905 32.048 10.7563C32.4597 10.7563 32.8307 10.7563 33.1993 10.7563C34.7021 10.772 35.8518 11.9123 35.851 13.4174C35.851 21.025 35.8437 28.6327 35.8291 36.2403C35.8291 37.6647 35.037 38.6274 33.6423 38.9538C33.6164 38.9655 33.5924 38.9811 33.5711 39ZM27.8638 31.2687H24.8482C24.2541 31.2687 23.851 31.6233 23.8471 32.1422C23.8432 32.6611 24.2494 33.0258 24.8372 33.0258C26.8482 33.0258 28.8589 33.0258 30.8693 33.0258C31.4649 33.0258 31.8649 32.6736 31.8688 32.1531C31.8727 31.6327 31.4727 31.2687 30.8795 31.2687C29.8745 31.2651 28.8693 31.2651 27.8638 31.2687ZM27.8552 21.3076C28.8508 21.3076 29.8466 21.3076 30.8427 21.3076C31.4375 21.3076 31.8367 20.9554 31.8398 20.4333C31.8429 19.9113 31.4422 19.5513 30.8529 19.5505H24.8482C24.2557 19.5505 23.8502 19.9066 23.8471 20.4239C23.844 20.9413 24.2502 21.3068 24.838 21.3076C25.844 21.3065 26.8497 21.3055 27.8552 21.3045V21.3076ZM27.8552 27.1667C28.8518 27.1667 29.8479 27.1667 30.8435 27.1667C31.4367 27.1667 31.8367 26.8122 31.8382 26.2909C31.8398 25.7696 31.4399 25.4096 30.8489 25.4096C28.8479 25.4096 26.8463 25.4096 24.8443 25.4096C24.2518 25.4096 23.8471 25.7665 23.8456 26.2846C23.844 26.8028 24.2494 27.1651 24.8388 27.1667C25.8458 27.1662 26.8518 27.1651 27.8568 27.1636L27.8552 27.1667ZM18.939 26.3958C18.7762 26.215 18.6431 26.0451 18.4881 25.8988C18.1226 25.552 17.5912 25.5513 17.2499 25.8862C17.1671 25.9662 17.101 26.0618 17.0555 26.1675C17.01 26.2733 16.986 26.387 16.9849 26.5021C16.9838 26.6172 17.0056 26.7314 17.0491 26.838C17.0926 26.9445 17.1569 27.0414 17.2382 27.1229C17.5935 27.4986 17.9588 27.8638 18.3339 28.2186C18.7182 28.5833 19.2144 28.588 19.5909 28.2186C20.4746 27.3506 21.3465 26.4709 22.2192 25.5912C22.3276 25.4852 22.4067 25.3528 22.4486 25.207C22.4905 25.0612 22.4938 24.907 22.4581 24.7595C22.4224 24.6121 22.349 24.4765 22.2451 24.3659C22.1412 24.2554 22.0103 24.1738 21.8654 24.1291C21.7112 24.0777 21.5455 24.0717 21.388 24.1118C21.2305 24.1519 21.0878 24.2364 20.977 24.3553C20.3165 25.012 19.6543 25.6757 18.9405 26.3926L18.939 26.3958ZM18.9437 32.2494C18.7746 32.0663 18.6392 31.8988 18.4827 31.7524C18.3181 31.5888 18.0955 31.497 17.8636 31.497C17.6316 31.497 17.409 31.5888 17.2445 31.7524C17.1624 31.8332 17.0972 31.9295 17.0527 32.0357C17.0082 32.1419 16.9852 32.2559 16.9852 32.3711C16.9852 32.4863 17.0082 32.6003 17.0527 32.7065C17.0972 32.8127 17.1624 32.909 17.2445 32.9898C17.6008 33.365 17.9661 33.7302 18.3402 34.0856C18.7237 34.4479 19.2192 34.4464 19.5972 34.0738C20.4793 33.2051 21.3527 32.3261 22.2246 31.4464C22.3305 31.3411 22.4076 31.2104 22.4488 31.0669C22.4899 30.9234 22.4937 30.7717 22.4598 30.6264C22.4258 30.481 22.3552 30.3467 22.2548 30.2362C22.1543 30.1258 22.0273 30.0428 21.8857 29.9953C21.728 29.939 21.5573 29.9304 21.3947 29.9705C21.2322 30.0105 21.085 30.0976 20.9716 30.2207C20.3118 30.8774 19.6543 31.5395 18.9452 32.2463L18.9437 32.2494ZM18.9288 20.0905C18.7722 19.9074 18.6384 19.7336 18.4834 19.588C18.1109 19.2382 17.5904 19.2429 17.2476 19.5841C17.165 19.6644 17.0993 19.7603 17.0542 19.8662C17.0091 19.9721 16.9856 20.086 16.985 20.2011C16.9844 20.3163 17.0068 20.4304 17.0508 20.5367C17.0948 20.6431 17.1596 20.7397 17.2413 20.8208C17.5967 21.1949 17.9619 21.5601 18.3371 21.9165C18.7214 22.2805 19.2145 22.282 19.5894 21.9087C20.4722 21.0399 21.3441 20.161 22.2168 19.2812C22.3249 19.1751 22.4036 19.0427 22.4451 18.897C22.4866 18.7513 22.4896 18.5973 22.4537 18.4502C22.4178 18.303 22.3442 18.1677 22.2403 18.0575C22.1363 17.9473 22.0055 17.866 21.8607 17.8215C21.7016 17.7706 21.5312 17.7666 21.3699 17.8101C21.2086 17.8535 21.0632 17.9426 20.9512 18.0665C20.3024 18.7185 19.6473 19.372 18.9303 20.0874L18.9288 20.0905Z" fill="white"/>
<path d="M24.4592 12.515H19.3358C18.7958 12.515 18.5876 12.3107 18.5852 11.7762C18.5821 11.0937 18.5821 10.4106 18.5852 9.7271C18.5852 9.20976 18.7997 9 19.317 9C22.7332 9 26.149 9 29.5646 9C30.0914 9 30.2917 9.19958 30.2933 9.72319C30.2933 10.4166 30.2933 11.1096 30.2933 11.802C30.2933 12.306 30.0859 12.5142 29.5834 12.515C27.8756 12.516 26.1675 12.516 24.4592 12.515Z" fill="white"/>
</svg>
