<svg width="38" height="26" viewBox="0 0 38 26" fill="none" xmlns="http://www.w3.org/2000/svg">
<path d="M25.2791 0H17.2369C13.5937 0 10.7064 0 8.44908 0.192314C6.12357 0.389826 4.2421 0.805641 2.75922 1.74252C1.27428 2.6794 0.615455 3.86837 0.303597 5.33672C1.53876e-07 6.76348 0 8.58657 0 10.8878V18.4739C0 20.4334 1.90006 22.1122 4.59939 22.8165C4.46102 21.634 4.46102 19.9773 4.46102 18.5973V12.0872C4.46102 10.4226 4.46102 8.98679 4.70472 7.8381C4.96701 6.60625 5.55768 5.42638 7.0736 4.46871C8.58952 3.51103 10.4586 3.1381 12.4082 2.97177C14.2257 2.81844 16.4975 2.81844 19.1349 2.81844H25.4753C28.1106 2.81844 30.3783 2.81844 32.1978 2.97177C31.6528 2.09635 30.7011 1.34456 29.467 0.814455C28.2328 0.28435 26.7734 0.000527334 25.2791 0Z" fill="#878787"/>
<path d="M7.43506 12.2109C7.43506 8.66871 7.43506 6.8976 9.17816 5.79699C10.9192 4.69638 13.7218 4.69638 19.3311 4.69638H25.2791C30.8864 4.69638 33.691 4.69638 35.4341 5.79699C37.1772 6.8976 37.1752 8.66871 37.1752 12.2109V18.4741C37.1752 22.0163 37.1752 23.7875 35.4341 24.8881C33.691 25.9887 30.8864 25.9887 25.2791 25.9887H19.3311C13.7239 25.9887 10.9192 25.9887 9.17816 24.8881C7.43506 23.7875 7.43506 22.0163 7.43506 18.4741V12.2109Z" fill="#878787"/>
</svg>
