<svg width="48" height="48" viewBox="0 0 48 48" fill="none" xmlns="http://www.w3.org/2000/svg">
<rect width="48" height="48" rx="8" fill="#073E74"/>
<path d="M35 12H33.5V10.5C33.5 9.675 32.825 9 32 9C31.175 9 30.5 9.675 30.5 10.5V12H18.5V10.5C18.5 9.675 17.825 9 17 9C16.175 9 15.5 9.675 15.5 10.5V12H14C12.335 12 11.015 13.35 11.015 15L11 36C11 36.7956 11.3161 37.5587 11.8787 38.1213C12.4413 38.6839 13.2044 39 14 39H35C36.65 39 38 37.65 38 36V15C38 13.35 36.65 12 35 12ZM35 34.5C35 35.325 34.325 36 33.5 36H15.5C14.675 36 14 35.325 14 34.5V19.5H35V34.5ZM17 22.5H20V25.5H17V22.5ZM23 22.5H26V25.5H23V22.5ZM29 22.5H32V25.5H29V22.5Z" fill="white"/>
</svg>
