<svg width="48" height="48" viewBox="0 0 48 48" fill="none" xmlns="http://www.w3.org/2000/svg">
<rect width="48" height="48" rx="8" fill="#073E74"/>
<path d="M35.6667 9H12.3333C10.5 9 9 10.5 9 12.3333V35.6667C9 37.5 10.5 39 12.3333 39H35.6667C37.5 39 39 37.5 39 35.6667V12.3333C39 10.5 37.5 9 35.6667 9ZM15.6667 15.6667H19V19H15.6667V15.6667ZM15.6667 22.3333H19V25.6667H15.6667V22.3333ZM15.6667 29H19V32.3333H15.6667V29ZM32.3333 32.3333H22.3333V29H32.3333V32.3333ZM32.3333 25.6667H22.3333V22.3333H32.3333V25.6667ZM32.3333 19H22.3333V15.6667H32.3333V19Z" fill="white"/>
</svg>
