<svg width="48" height="48" viewBox="0 0 48 48" fill="none" xmlns="http://www.w3.org/2000/svg">
<rect width="48" height="48" rx="8" fill="#073E74"/>
<path fill-rule="evenodd" clip-rule="evenodd" d="M19 25.6667C19.8841 25.6667 20.7319 26.0179 21.357 26.643C21.9821 27.2681 22.3333 28.1159 22.3333 29V35.6667C22.3333 36.5507 21.9821 37.3986 21.357 38.0237C20.7319 38.6488 19.8841 39 19 39H12.3333C11.4493 39 10.6014 38.6488 9.97631 38.0237C9.35119 37.3986 9 36.5507 9 35.6667V29C9 28.1159 9.35119 27.2681 9.97631 26.643C10.6014 26.0179 11.4493 25.6667 12.3333 25.6667H19ZM35.6667 25.6667C36.5507 25.6667 37.3986 26.0179 38.0237 26.643C38.6488 27.2681 39 28.1159 39 29V35.6667C39 36.5507 38.6488 37.3986 38.0237 38.0237C37.3986 38.6488 36.5507 39 35.6667 39H29C28.1159 39 27.2681 38.6488 26.643 38.0237C26.0179 37.3986 25.6667 36.5507 25.6667 35.6667V29C25.6667 28.1159 26.0179 27.2681 26.643 26.643C27.2681 26.0179 28.1159 25.6667 29 25.6667H35.6667ZM19 9C19.8841 9 20.7319 9.35119 21.357 9.97631C21.9821 10.6014 22.3333 11.4493 22.3333 12.3333V19C22.3333 19.8841 21.9821 20.7319 21.357 21.357C20.7319 21.9821 19.8841 22.3333 19 22.3333H12.3333C11.4493 22.3333 10.6014 21.9821 9.97631 21.357C9.35119 20.7319 9 19.8841 9 19V12.3333C9 11.4493 9.35119 10.6014 9.97631 9.97631C10.6014 9.35119 11.4493 9 12.3333 9H19ZM35.6667 9C36.5507 9 37.3986 9.35119 38.0237 9.97631C38.6488 10.6014 39 11.4493 39 12.3333V19C39 19.8841 38.6488 20.7319 38.0237 21.357C37.3986 21.9821 36.5507 22.3333 35.6667 22.3333H29C28.1159 22.3333 27.2681 21.9821 26.643 21.357C26.0179 20.7319 25.6667 19.8841 25.6667 19V12.3333C25.6667 11.4493 26.0179 10.6014 26.643 9.97631C27.2681 9.35119 28.1159 9 29 9H35.6667Z" fill="white"/>
</svg>
