<svg width="48" height="48" viewBox="0 0 48 48" fill="none" xmlns="http://www.w3.org/2000/svg">
<rect width="48" height="48" rx="8" fill="#073E74"/>
<path d="M24 25.7636L26.85 27.4942C27.125 27.6698 27.4 27.6638 27.675 27.4762C27.95 27.2886 28.05 27.0312 27.975 26.7042L27.225 23.4311L29.775 21.2114C30.025 20.9856 30.1 20.7162 30 20.4032C29.9 20.0902 29.675 19.9207 29.325 19.8946L25.9875 19.6312L24.675 16.5462C24.55 16.2453 24.325 16.0948 24 16.0948C23.675 16.0948 23.45 16.2453 23.325 16.5462L22.0125 19.6312L18.675 19.8946C18.325 19.9197 18.1 20.0892 18 20.4032C17.9 20.7173 17.975 20.9866 18.225 21.2114L20.775 23.4311L20.025 26.7042C19.95 27.0302 20.05 27.2876 20.325 27.4762C20.6 27.6648 20.875 27.6708 21.15 27.4942L24 25.7636ZM15 34.0781L11.55 37.5393C11.075 38.0158 10.531 38.1227 9.918 37.8598C9.305 37.597 8.999 37.1265 9 36.4483V13.0098C9 12.1821 9.294 11.4738 9.882 10.8849C10.47 10.296 11.176 10.001 12 10H36C36.825 10 37.5315 10.295 38.1195 10.8849C38.7075 11.4748 39.001 12.1831 39 13.0098V31.0683C39 31.896 38.7065 32.6048 38.1195 33.1947C37.5325 33.7846 36.826 34.0791 36 34.0781H15ZM13.725 31.0683H36V13.0098H12V32.7613L13.725 31.0683Z" fill="white"/>
</svg>
