<svg width="48" height="48" viewBox="0 0 48 48" fill="none" xmlns="http://www.w3.org/2000/svg">
<rect width="48" height="48" rx="8" fill="#073E74"/>
<path d="M10.6667 15.69C10.6667 15.35 10.6667 15.18 10.7301 15.0267C10.7934 14.8733 10.9134 14.7533 11.1551 14.5117L13.7134 11.9533C14.6767 10.99 15.1601 10.5067 15.7717 10.2533C16.3834 10 17.0667 10 18.4284 10H29.5717C30.9351 10 31.6151 10 32.2284 10.2533C32.8401 10.5067 33.3217 10.99 34.2867 11.9533L36.8451 14.5117C37.0867 14.7533 37.2067 14.8733 37.2701 15.0267C37.3334 15.18 37.3334 15.35 37.3334 15.69V16.6667H10.6667V15.69Z" fill="white" stroke="#073E74" stroke-width="0.5"/>
<path d="M38.75 16.9167V31.6667C38.75 33.2453 38.7492 34.4037 38.6299 35.2907C38.5263 36.0605 38.3368 36.5974 38 37.0104L37.8467 37.1803C37.4125 37.6144 36.8366 37.8452 35.957 37.9635C35.0701 38.0828 33.9115 38.0836 32.333 38.0836H15.667C14.0885 38.0836 12.9299 38.0828 12.043 37.9635C11.2733 37.86 10.7362 37.6703 10.3232 37.3336L10.1533 37.1803C9.71914 36.7462 9.48846 36.1704 9.37012 35.2907C9.25081 34.4037 9.25 33.2453 9.25 31.6667V16.9167H38.75ZM29 19.7497C28.5551 19.7497 28.1262 19.9047 27.7852 20.1842L27.6445 20.3112C27.2851 20.6706 27.083 21.1583 27.083 21.6667C27.083 22.4332 26.7981 23.1704 26.2861 23.736L26.1807 23.8473C25.6024 24.4256 24.8178 24.7497 24 24.7497C23.1822 24.7497 22.3976 24.4256 21.8193 23.8473C21.2411 23.2691 20.917 22.4844 20.917 21.6667C20.917 21.1583 20.7149 20.6706 20.3555 20.3112C19.996 19.9517 19.5083 19.7497 19 19.7497C18.5551 19.7497 18.1262 19.9047 17.7852 20.1842L17.6445 20.3112C17.2851 20.6706 17.083 21.1583 17.083 21.6667C17.083 23.5011 17.8122 25.2602 19.1094 26.5573C20.4065 27.8544 22.1656 28.5836 24 28.5836C25.8344 28.5836 27.5935 27.8544 28.8906 26.5573C30.1878 25.2602 30.917 23.5011 30.917 21.6667C30.917 21.1583 30.7149 20.6706 30.3555 20.3112C29.996 19.9517 29.5083 19.7497 29 19.7497Z" fill="white" stroke="#073E74" stroke-width="0.5"/>
</svg>
