<svg width="60" height="60" viewBox="0 0 60 60" fill="none" xmlns="http://www.w3.org/2000/svg">
<rect x="0.75" y="0.75" width="58.5" height="58.5" rx="7.25" stroke="#96BF47" stroke-width="1.5"/>
<path d="M44.9969 34.1383C44.9523 34.1859 44.9187 34.2602 44.8609 34.2781C44.7047 34.3289 44.5164 34.4227 44.3836 34.3766C44.2508 34.3305 44.1492 34.1477 44.0711 34.0031C44.0258 33.9188 44.0586 33.793 44.0586 33.6859C44.0586 28.9297 44.0469 24.1742 44.0695 19.418C44.0695 18.5758 43.5227 17.9203 42.5648 17.9227C34.1872 17.9424 25.8096 17.9424 17.432 17.9227C16.5016 17.9227 15.9172 18.5414 15.9219 19.443C15.9461 24.5992 15.9336 29.7555 15.9336 34.9117C15.9336 35.9211 16.4305 36.4164 17.4445 36.4172H19.4656C19.9922 36.4172 20.1281 36.5477 20.1437 37.0633L20.2656 41.1547C20.2656 41.2203 20.2727 41.2859 20.2797 41.425C20.5766 41.0906 20.818 40.7906 21.0914 40.5242C21.2047 40.4133 21.3898 40.3102 21.5398 40.3133C21.9172 40.3219 22.0922 40.7734 21.8352 41.075C21.2969 41.7047 20.7492 42.325 20.1789 42.9297C20.0773 43.0367 19.8414 43.0781 19.6812 43.0539C19.4734 43.0227 19.3805 42.8305 19.3742 42.6117C19.3414 41.55 19.2961 40.4891 19.2758 39.4273C19.2609 38.7477 19.2758 38.0672 19.2758 37.3531C18.5602 37.3531 17.9289 37.3531 17.2976 37.3531C16.5945 37.3531 15.9758 37.1187 15.5469 36.5633C15.3063 36.2508 15.1773 35.8484 15 35.4867V18.8758C15.0136 18.862 15.0249 18.8462 15.0336 18.8289C15.3828 17.5789 16.1359 17 17.4281 17H29.8391C34.1323 17 38.4255 17 42.7187 17C43.8359 17 44.6805 17.668 44.9461 18.7438C44.9611 18.7887 44.9791 18.8325 45 18.875L44.9969 34.1383Z" fill="#073E74" stroke="#073E74" stroke-width="0.25"/>
<path d="M44.9969 35.5445C44.5071 35.9875 44.0243 36.4383 43.5243 36.8688C43.4505 36.921 43.396 36.996 43.3691 37.0822C43.3421 37.1685 43.3442 37.2612 43.375 37.3461C43.5086 37.8742 43.6164 38.4086 43.7407 38.9383C43.7946 39.1672 43.7719 39.3688 43.5696 39.5117C43.3672 39.6547 43.1789 39.6086 42.9938 39.4969C42.525 39.2188 42.0453 38.9547 41.5875 38.657C41.3813 38.5227 41.2336 38.5469 41.0407 38.668C40.5946 38.9477 40.1336 39.2023 39.6836 39.4742C39.4758 39.6 39.2688 39.6578 39.0586 39.5055C38.8485 39.3531 38.8508 39.1516 38.9024 38.9273C39.0313 38.368 39.161 37.8086 39.2703 37.2461C39.2762 37.1897 39.27 37.1327 39.2522 37.0788C39.2344 37.025 39.2055 36.9755 39.1672 36.9336C38.7461 36.543 38.3078 36.1664 37.8758 35.7899C37.6985 35.6336 37.5961 35.4602 37.6743 35.2258C37.7524 34.9914 37.9391 34.9133 38.1743 34.8984C38.7477 34.8516 39.3204 34.7977 39.893 34.7266C39.9491 34.7146 40.0019 34.6907 40.048 34.6566C40.094 34.6225 40.1323 34.579 40.1602 34.5289C40.3993 34.018 40.6196 33.4984 40.8383 32.9789C40.9321 32.7555 41.0625 32.5805 41.3227 32.5805C41.5828 32.5805 41.7133 32.7563 41.8055 32.9805C42.0196 33.4914 42.2508 33.9961 42.4633 34.5078C42.481 34.5766 42.5216 34.6372 42.5784 34.6799C42.6352 34.7225 42.7048 34.7444 42.7758 34.7422C43.3102 34.7789 43.8422 34.8547 44.3774 34.8883C44.6407 34.9047 44.8461 34.9875 44.9969 35.2008V35.5445ZM42.6047 38.175C42.5196 37.7961 42.4485 37.4656 42.3703 37.1383C42.3016 36.8547 42.3618 36.6289 42.5993 36.4399C42.8594 36.2313 43.1 35.9984 43.3914 35.7367C42.9649 35.693 42.6102 35.6523 42.2516 35.6219C42.1441 35.617 42.0406 35.5798 41.9546 35.5151C41.8685 35.4505 41.8041 35.3613 41.7696 35.2594C41.6328 34.932 41.486 34.6086 41.3211 34.2305C41.1649 34.5813 41.0204 34.8766 40.9071 35.1836C40.8686 35.315 40.7884 35.4304 40.6786 35.5123C40.5689 35.5942 40.4354 35.6381 40.2985 35.6375C39.9657 35.6578 39.6344 35.6992 39.2453 35.7375C39.5 35.9633 39.6875 36.1656 39.9094 36.3188C40.2907 36.5813 40.3711 36.9055 40.2274 37.3344C40.1446 37.5813 40.1149 37.8453 40.0469 38.1719C40.3797 37.9766 40.6493 37.8406 40.8946 37.6688C41.193 37.4602 41.4618 37.4742 41.7539 37.6727C42.0125 37.843 42.2891 37.9875 42.6047 38.1734V38.175Z" fill="#073E74" stroke="#073E74" stroke-width="0.25"/>
<path d="M22.4539 39.1625C22.6047 38.4836 22.7282 37.8828 22.8766 37.2875C22.9219 37.1055 22.8766 37.0039 22.7407 36.8898C22.3164 36.5305 21.9071 36.1547 21.4844 35.7961C21.2954 35.6344 21.193 35.4461 21.2797 35.2055C21.3665 34.9648 21.5602 34.9125 21.7938 34.893C22.3571 34.8484 22.9211 34.7961 23.4813 34.7226C23.5417 34.7098 23.5987 34.6842 23.6483 34.6474C23.6979 34.6106 23.739 34.5635 23.7688 34.5094C24.0079 33.9992 24.225 33.4781 24.4446 32.9586C24.5344 32.7453 24.6657 32.582 24.9133 32.5773C25.1743 32.5726 25.3094 32.743 25.4039 32.968C25.6227 33.4883 25.8555 34.0023 26.0704 34.5242C26.0897 34.5878 26.1297 34.6432 26.1841 34.6815C26.2384 34.7198 26.3039 34.739 26.3704 34.7359C26.9438 34.7789 27.5157 34.8469 28.0891 34.8922C28.3133 34.9117 28.4914 34.9922 28.5688 35.2101C28.6469 35.4445 28.5563 35.6234 28.3782 35.7773C27.9508 36.1476 27.5313 36.5281 27.0993 36.8922C27.0367 36.9365 26.9902 36.9998 26.9667 37.0728C26.9431 37.1458 26.9439 37.2244 26.9688 37.2969C27.0954 37.8164 27.2032 38.3406 27.3258 38.8594C27.3836 39.1 27.411 39.3281 27.1868 39.4976C26.9625 39.6672 26.7297 39.5758 26.5102 39.4422C26.068 39.1758 25.6149 38.9266 25.1821 38.6453C24.9868 38.5187 24.8446 38.5367 24.6579 38.6539C24.1891 38.9484 23.7125 39.2391 23.2211 39.4953C23.1407 39.5317 23.0538 39.5518 22.9655 39.5542C22.8773 39.5566 22.7894 39.5414 22.7071 39.5094C22.5789 39.4547 22.5157 39.2562 22.4539 39.1625ZM26.9969 35.7367C26.5664 35.6937 26.2157 35.6531 25.8672 35.625C25.7547 35.6207 25.6462 35.5821 25.5563 35.5144C25.4663 35.4467 25.3993 35.353 25.3641 35.2461C25.2305 34.9203 25.0836 34.6008 24.9204 34.2305C24.7579 34.6047 24.6149 34.9234 24.4813 35.2461C24.3868 35.4742 24.2336 35.6062 23.9789 35.6266C23.6227 35.6547 23.2672 35.6969 22.8438 35.7398C23.1477 36.007 23.4024 36.2414 23.668 36.4625C23.7668 36.5349 23.8401 36.6367 23.8774 36.7533C23.9148 36.87 23.9142 36.9954 23.8758 37.1117C23.7915 37.4383 23.7282 37.7711 23.6415 38.1758C23.9868 37.9734 24.2758 37.8187 24.5485 37.6391C24.8211 37.4594 25.0485 37.4742 25.3086 37.6391C25.5836 37.8164 25.8727 37.9734 26.2094 38.1711C26.1219 37.7805 26.0532 37.4516 25.975 37.1234C25.9102 36.8516 25.9657 36.632 26.193 36.4484C26.4493 36.2383 26.6938 36.0055 26.9969 35.7367Z" fill="#073E74" stroke="#073E74" stroke-width="0.25"/>
<path d="M33.1218 32.4562C33.3125 32.6523 33.4906 32.7687 33.5695 32.925C33.8211 33.4398 34.0383 33.9711 34.2617 34.5008C34.2813 34.5689 34.323 34.6286 34.3803 34.6703C34.4377 34.712 34.5072 34.7335 34.5781 34.7312C35.1515 34.7719 35.7234 34.8406 36.2968 34.8914C36.5226 34.9109 36.6937 35 36.7656 35.2187C36.8375 35.4375 36.7523 35.6156 36.5843 35.7656C36.1586 36.1383 35.7398 36.518 35.3062 36.8805C35.2392 36.9268 35.189 36.9938 35.1635 37.0712C35.138 37.1486 35.1385 37.2322 35.1648 37.3094C35.2969 37.8476 35.4117 38.3906 35.5375 38.9305C35.589 39.1555 35.575 39.3625 35.3711 39.507C35.1672 39.6516 34.9703 39.6031 34.7703 39.4828C34.2945 39.1961 33.8094 38.925 33.3398 38.6289C33.1734 38.5242 33.0554 38.5328 32.8937 38.6336C32.4304 38.9226 31.9562 39.1883 31.4875 39.4695C31.2804 39.5937 31.0742 39.6562 30.8625 39.5055C30.6508 39.3547 30.6562 39.1266 30.7062 38.8984C30.8273 38.357 30.9406 37.8141 31.0758 37.2766C31.1001 37.2093 31.1012 37.1359 31.079 37.0679C31.0568 37 31.0125 36.9414 30.9531 36.9016C30.5226 36.5351 30.1039 36.1547 29.675 35.7859C29.4961 35.6297 29.3976 35.4539 29.4734 35.2211C29.5492 34.9883 29.7383 34.9086 29.9734 34.893C30.5468 34.8469 31.1203 34.793 31.6922 34.7211C31.7485 34.7095 31.8016 34.6859 31.848 34.652C31.8944 34.618 31.9329 34.5744 31.9609 34.5242C32.207 33.9953 32.4172 33.4492 32.6718 32.925C32.75 32.7641 32.9304 32.6539 33.1218 32.4562ZM34.4047 38.1726C34.3265 37.8039 34.2781 37.5047 34.1906 37.2187C34.0804 36.8617 34.1718 36.6 34.4664 36.3766C34.707 36.193 34.925 35.9781 35.2015 35.7344C34.8109 35.6984 34.4984 35.6562 34.1906 35.6445C33.8476 35.6289 33.632 35.4773 33.5148 35.1492C33.4094 34.8523 33.2679 34.5687 33.1242 34.2281C32.9679 34.5891 32.8203 34.8961 32.6976 35.2109C32.6598 35.3324 32.5845 35.4387 32.4824 35.5147C32.3804 35.5906 32.2569 35.6322 32.1297 35.6336C31.7875 35.657 31.4461 35.6992 31.0453 35.7391C31.3453 36.0031 31.5875 36.2273 31.8429 36.4367C32.0711 36.6242 32.1554 36.8359 32.0719 37.1305C31.9828 37.4492 31.9297 37.7773 31.8461 38.1703C32.2109 37.957 32.5078 37.7914 32.7945 37.6117C32.8908 37.5439 33.0057 37.5075 33.1234 37.5075C33.2412 37.5075 33.356 37.5439 33.4523 37.6117C33.7468 37.7922 34.0515 37.9664 34.4054 38.1726H34.4047Z" fill="#073E74" stroke="#073E74" stroke-width="0.25"/>
<path d="M29.9875 24.7633C30.4642 24.7619 30.9305 24.9018 31.3277 25.1654C31.7249 25.429 32.035 25.8044 32.2188 26.2442C32.4027 26.684 32.4521 27.1684 32.3607 27.6362C32.2694 28.1041 32.0414 28.5343 31.7056 28.8726C31.3698 29.211 30.9413 29.4421 30.4741 29.537C30.007 29.6318 29.5222 29.586 29.0811 29.4054C28.6399 29.2248 28.2622 28.9175 27.9957 28.5223C27.7292 28.1272 27.5857 27.6618 27.5836 27.1852C27.5809 26.8679 27.6411 26.5532 27.7607 26.2593C27.8804 25.9655 28.0571 25.6982 28.2806 25.473C28.5041 25.2478 28.77 25.0692 29.063 24.9473C29.356 24.8255 29.6702 24.763 29.9875 24.7633ZM31.4719 27.1609C31.4702 26.8695 31.3822 26.5851 31.2192 26.3436C31.0561 26.1021 30.8251 25.9143 30.5555 25.8039C30.2858 25.6934 29.9894 25.6653 29.7038 25.723C29.4182 25.7807 29.156 25.9217 28.9504 26.1282C28.7448 26.3347 28.6049 26.5975 28.5483 26.8833C28.4918 27.1692 28.5212 27.4654 28.6328 27.7346C28.7444 28.0038 28.9332 28.234 29.1754 28.3961C29.4176 28.5581 29.7023 28.6448 29.9937 28.6453C30.1892 28.6473 30.383 28.6102 30.5639 28.5361C30.7447 28.462 30.9089 28.3524 31.0467 28.2138C31.1846 28.0753 31.2933 27.9105 31.3664 27.7293C31.4396 27.5481 31.4757 27.354 31.4726 27.1586L31.4719 27.1609Z" fill="#073E74" stroke="#073E74" stroke-width="0.25"/>
<path d="M23.6406 24.7633C24.1172 24.7653 24.5825 24.9084 24.9777 25.1747C25.373 25.4409 25.6805 25.8182 25.8615 26.2591C26.0425 26.6999 26.0888 27.1845 25.9946 27.6517C25.9004 28.1188 25.6699 28.5476 25.3322 28.8839C24.9945 29.2202 24.5648 29.4489 24.0972 29.5411C23.6297 29.6333 23.1453 29.585 22.7052 29.4021C22.2651 29.2193 21.8891 28.9102 21.6245 28.5138C21.3599 28.1174 21.2188 27.6516 21.2188 27.175C21.2214 26.5344 21.4778 25.921 21.9317 25.469C22.3856 25.017 23.0001 24.7633 23.6406 24.7633ZM23.6336 28.65C23.9255 28.6494 24.2106 28.5622 24.4529 28.3994C24.6952 28.2366 24.8838 28.0056 24.9947 27.7357C25.1057 27.4657 25.134 27.1688 25.0762 26.8827C25.0184 26.5966 24.8769 26.3341 24.6698 26.1284C24.4627 25.9227 24.1992 25.7831 23.9127 25.7273C23.6262 25.6714 23.3296 25.7018 23.0604 25.8146C22.7912 25.9274 22.5615 26.1176 22.4004 26.361C22.2393 26.6044 22.1541 26.8901 22.1555 27.182C22.1608 27.5711 22.3187 27.9425 22.5951 28.2163C22.8716 28.4902 23.2445 28.6445 23.6336 28.6461V28.65Z" fill="#073E74" stroke="#073E74" stroke-width="0.25"/>
<path d="M36.3547 24.7633C36.8314 24.7653 37.2968 24.9085 37.6921 25.1748C38.0874 25.4411 38.3949 25.8186 38.5758 26.2596C38.7568 26.7006 38.8029 27.1853 38.7085 27.6526C38.6141 28.1198 38.3834 28.5485 38.0455 28.8847C37.7076 29.2209 37.2776 29.4494 36.8099 29.5414C36.3422 29.6333 35.8578 29.5847 35.4177 29.4015C34.9777 29.2183 34.6018 28.9088 34.3375 28.5121C34.0732 28.1154 33.9324 27.6493 33.9329 27.1727C33.9362 26.5325 34.1928 25.9197 34.6466 25.4682C35.1005 25.0167 35.7146 24.7633 36.3547 24.7633ZM36.3446 28.65C36.6368 28.6498 36.9223 28.5629 37.1651 28.4003C37.4078 28.2377 37.5969 28.0067 37.7082 27.7366C37.8195 27.4665 37.8482 27.1694 37.7905 26.8829C37.7329 26.5965 37.5915 26.3336 37.3843 26.1276C37.1771 25.9216 36.9134 25.7818 36.6266 25.7258C36.3398 25.6698 36.0429 25.7002 35.7734 25.8131C35.5039 25.926 35.2741 26.1164 35.1129 26.3601C34.9517 26.6038 34.8665 26.8898 34.868 27.182C34.8733 27.5708 35.031 27.942 35.3071 28.2158C35.5832 28.4896 35.9557 28.6441 36.3446 28.6461V28.65Z" fill="#073E74" stroke="#073E74" stroke-width="0.25"/>
</svg>
