<svg width="48" height="48" viewBox="0 0 48 48" fill="none" xmlns="http://www.w3.org/2000/svg">
<rect width="48" height="48" rx="8" fill="#073E74"/>
<path fill-rule="evenodd" clip-rule="evenodd" d="M24.9506 12.6367C24.8668 12.4466 24.7328 12.2857 24.5643 12.1728C24.3958 12.06 24.2 12 24 12C23.8 12 23.6042 12.06 23.4357 12.1728C23.2672 12.2857 23.1332 12.4466 23.0494 12.6367L20.0446 19.4532L12.9242 20.3376C12.7255 20.3621 12.5378 20.4457 12.3831 20.5785C12.2284 20.7113 12.1133 20.8877 12.0514 21.0868C11.9895 21.2859 11.9834 21.4994 12.0338 21.702C12.0842 21.9047 12.189 22.088 12.3358 22.2302L17.602 27.3261L16.2043 34.6905C16.1655 34.8958 16.1837 35.1084 16.2566 35.3032C16.3296 35.4981 16.4543 35.667 16.6161 35.79C16.7778 35.9129 16.9699 35.9849 17.1694 35.9973C17.369 36.0096 17.5678 35.9619 17.7423 35.8598L24 32.1929L30.2577 35.8598C30.4323 35.9624 30.6313 36.0104 30.8312 35.9981C31.0311 35.9859 31.2234 35.9139 31.3854 35.7907C31.5474 35.6675 31.6723 35.4983 31.7452 35.3031C31.8181 35.1079 31.836 34.8949 31.7967 34.6894L30.399 27.3272L35.6642 22.2302C35.811 22.088 35.9158 21.9047 35.9662 21.702C36.0166 21.4994 36.0105 21.2859 35.9486 21.0868C35.8867 20.8877 35.7716 20.7113 35.6169 20.5785C35.4622 20.4457 35.2745 20.3621 35.0758 20.3376L27.9544 19.4521L24.9506 12.6367Z" fill="white"/>
</svg>
